<svg xmlns="http://www.w3.org/2000/svg" width="101.25" height="21.226" viewBox="0 0 101.25 21.226">
  <g id="Group_326" data-name="Group 326" transform="translate(-136.75 -16)">
    <g id="Group_14" data-name="Group 14" transform="translate(137 16)">
      <g id="Union_16" data-name="Union 16" transform="translate(13.942 9.805)" fill="#fbf2c0">
        <path d="M 4.537910461425781 5.647818088531494 C 4.151020526885986 5.647818088531494 3.914230346679688 5.502158164978027 3.914230346679688 5.42283821105957 L 3.91506028175354 2.625868082046509 L 3.915100336074829 2.50082802772522 L 3.908266305923462 2.500731945037842 C 3.896063566207886 2.375501871109009 3.865178108215332 2.253843784332275 3.816010236740112 2.137718200683594 C 3.753010272979736 1.988898038864136 3.66290020942688 1.855288147926331 3.548180341720581 1.740598082542419 C 3.433990240097046 1.626138091087341 3.300350189208984 1.535998106002808 3.151090383529663 1.47281813621521 C 2.996790409088135 1.407628059387207 2.83314037322998 1.374588131904602 2.664620399475098 1.374588131904602 L 0.2977403104305267 1.374468088150024 C 0.2465102970600128 1.364198088645935 0.1250002980232239 1.139188051223755 0.1250002980232239 0.7497380971908569 C 0.1250002980232239 0.3603681027889252 0.2465102970600128 0.1353080868721008 0.2983603179454803 0.1249480918049812 L 2.664560317993164 0.1260480880737305 L 2.739405870437622 0.1260839998722076 C 3.050456762313843 0.1351334303617477 3.352135181427002 0.2007149308919907 3.637230396270752 0.3213680982589722 C 3.785210371017456 0.3840280771255493 3.928060293197632 0.4615781009197235 4.061780452728271 0.5518481135368347 C 4.194360256195068 0.6414180994033813 4.318840503692627 0.7441080808639526 4.43172025680542 0.8570380806922913 C 4.545140266418457 0.9704681038856506 4.647780418395996 1.09492814540863 4.736820220947266 1.226978063583374 C 4.827260494232178 1.360968112945557 4.904800415039062 1.503778100013733 4.967330455780029 1.651498079299927 C 5.096980094909668 1.957957744598389 5.16304874420166 2.283422470092773 5.163714408874512 2.618862390518188 L 5.163570404052734 2.620558023452759 L 5.163760185241699 2.628798007965088 L 5.161580085754395 5.422738075256348 C 5.161580085754395 5.502158164978027 4.924800395965576 5.647818088531494 4.537910461425781 5.647818088531494 Z" stroke="none"/>
        <path d="M 4.537910461425781 5.522818088531494 C 4.826099395751953 5.522818088531494 4.993685722351074 5.437819004058838 5.036599636077881 5.397554397583008 L 5.038718223571777 2.628730297088623 L 5.0384202003479 2.617048025131226 L 5.038698196411133 2.613755226135254 C 5.037379741668701 2.296931505203247 4.974646091461182 1.989621639251709 4.85222053527832 1.700218081474304 C 4.792820453643799 1.559908032417297 4.719150066375732 1.424228072166443 4.633180141448975 1.296858072280884 C 4.548610210418701 1.171438097953796 4.451090335845947 1.053198099136353 4.343320369720459 0.9454081058502197 C 4.236070156097412 0.8381080627441406 4.117790222167969 0.7405381202697754 3.991840362548828 0.6554480791091919 C 3.864780187606812 0.5696780681610107 3.72907018661499 0.4959980845451355 3.588520288467407 0.4364780783653259 C 3.318285942077637 0.3221182823181152 3.032314538955688 0.2598619163036346 2.737384080886841 0.2510801553726196 L 0.3492577075958252 0.2500209510326385 C 0.3123103678226471 0.3103159070014954 0.2500002980232239 0.4791356921195984 0.2500002980232239 0.7497380971908569 C 0.2500002980232239 1.020406723022461 0.312324732542038 1.18921947479248 0.349254310131073 1.249470710754395 L 2.664620399475098 1.249588131904602 C 2.849950313568115 1.249588131904602 3.02996039390564 1.285938143730164 3.199810266494751 1.357708096504211 C 3.364010334014893 1.427208065986633 3.511030197143555 1.526368141174316 3.636550188064575 1.652198076248169 C 3.762710332870483 1.778318047523499 3.861820220947266 1.925278067588806 3.931110382080078 2.088978052139282 C 3.97034740447998 2.181645393371582 3.999005317687988 2.27747368812561 4.016920566558838 2.375664710998535 L 4.040130138397217 2.37582802772522 L 4.039237976074219 5.397590160369873 C 4.082183361053467 5.437855243682861 4.249759674072266 5.522818088531494 4.537910461425781 5.522818088531494 M 4.537910461425781 5.772818088531494 C 4.124370098114014 5.772818088531494 3.789230346679688 5.61611795425415 3.789230346679688 5.42283821105957 L 3.79006028175354 2.62582802772522 C 3.79006028175354 2.625238180160522 3.79006028175354 2.624658107757568 3.79006028175354 2.624068021774292 L 3.789230346679688 2.624068021774292 C 3.789230346679688 2.472278118133545 3.759580373764038 2.325038194656372 3.700900316238403 2.186458110809326 C 3.644210338592529 2.052538156509399 3.563130378723145 1.932298064231873 3.459800243377686 1.82899808883667 C 3.356750249862671 1.725698113441467 3.236520290374756 1.644718050956726 3.102360248565674 1.587928056716919 C 2.963520288467407 1.529268145561218 2.816310405731201 1.499588131904602 2.664620399475098 1.499588131904602 L 0.2977302968502045 1.499468088150024 C 0.133330300450325 1.499468088150024 3.038787781406427e-07 1.163868069648743 3.038787781406427e-07 0.7497380971908569 C 3.038787781406427e-07 0.3357180953025818 0.133330300450325 -1.909408638312016e-06 0.2977302968502045 -1.909408638312016e-06 L 2.664620399475098 0.001048090634867549 L 2.664620399475098 -1.909408638312016e-06 C 3.01904034614563 -1.909408638312016e-06 3.362600326538086 0.06940808892250061 3.68595027923584 0.2062480896711349 C 3.841580390930176 0.2721481025218964 3.991520404815674 0.3535980880260468 4.131720066070557 0.4482480883598328 C 4.271140098571777 0.5424380898475647 4.401800155639648 0.6502881050109863 4.520130157470703 0.7686681151390076 C 4.638950347900391 0.8875080943107605 4.74677038192749 1.018148064613342 4.840460300445557 1.157088041305542 C 4.935180187225342 1.297428131103516 5.016650199890137 1.447348117828369 5.082440376281738 1.602768063545227 C 5.219280242919922 1.926218032836914 5.28872013092041 2.269888162612915 5.28872013092041 2.623958110809326 L 5.288670539855957 2.624068021774292 C 5.288670539855957 2.624658107757568 5.28872013092041 2.625238180160522 5.28872013092041 2.62582802772522 L 5.286580085754395 5.42283821105957 C 5.286580085754395 5.61611795425415 4.951350212097168 5.772818088531494 4.537910461425781 5.772818088531494 Z" stroke="none" fill="#43281c"/>
      </g>
      <path id="Path_9" data-name="Path 9" d="M16977.174,430.512a.74.74,0,0,1-.514-.2.747.747,0,0,1-.031-1.06l7.3-7.739h-2.273a.75.75,0,0,1-.529-1.28l2.73-2.73h-6.02a.75.75,0,1,1,0-1.5h7.83a.749.749,0,0,1,.529,1.28l-2.729,2.73h2.2a.75.75,0,0,1,.545,1.264l-8.49,9A.745.745,0,0,1,16977.174,430.512Z" transform="translate(-16972.547 -416)" fill="#fbf2c0"/>
      <path id="Subtraction_39" data-name="Subtraction 39" d="M-12426.128-40.83a6.46,6.46,0,0,0,1.293-.13,6.406,6.406,0,0,0,1.2-.373,6.388,6.388,0,0,0,1.087-.591,6.445,6.445,0,0,0,.95-.784,6.428,6.428,0,0,0,.783-.95,6.377,6.377,0,0,0,.591-1.088,6.376,6.376,0,0,0,.373-1.2,6.43,6.43,0,0,0,.13-1.293,6.409,6.409,0,0,0-.345-2.081,6.284,6.284,0,0,0-.567-1.218h-10.994a6.347,6.347,0,0,0-.568,1.218,6.383,6.383,0,0,0-.345,2.081,6.5,6.5,0,0,0,.13,1.293,6.377,6.377,0,0,0,.373,1.2,6.313,6.313,0,0,0,.591,1.088,6.482,6.482,0,0,0,.783.95,6.392,6.392,0,0,0,.95.784,6.43,6.43,0,0,0,1.088.591,6.353,6.353,0,0,0,1.2.373,6.476,6.476,0,0,0,1.294.13m0,1.462a7.941,7.941,0,0,1-1.587-.16,7.834,7.834,0,0,1-1.478-.459,7.855,7.855,0,0,1-1.337-.726,7.933,7.933,0,0,1-1.165-.961,7.884,7.884,0,0,1-.961-1.165,7.876,7.876,0,0,1-.727-1.337,7.9,7.9,0,0,1-.459-1.478,7.978,7.978,0,0,1-.159-1.586,7.836,7.836,0,0,1,.424-2.555A7.872,7.872,0,0,1-12432.4-52h12.54a7.823,7.823,0,0,1,1.178,2.205,7.863,7.863,0,0,1,.425,2.555,7.907,7.907,0,0,1-.16,1.586,7.97,7.97,0,0,1-.459,1.478,7.814,7.814,0,0,1-.726,1.337,7.9,7.9,0,0,1-.961,1.165,7.98,7.98,0,0,1-1.165.961,7.83,7.83,0,0,1-1.338.726,7.834,7.834,0,0,1-1.478.459A7.917,7.917,0,0,1-12426.128-39.368Z" transform="translate(12434 60.343)" fill="#fbf2c0" stroke="#43281c" stroke-width="0.5"/>
    </g>
    <text id="Coffee_Masters" data-name="Coffee Masters" transform="translate(163 30)" fill="#fbf2c0" font-size="10" font-family="OpenSans-Bold, Open Sans" font-weight="700"><tspan x="0" y="0">Coffee Masters</tspan></text>
  </g>
</svg>
